<svg width="48" height="48" viewBox="0 0 48 48" fill="none" xmlns="http://www.w3.org/2000/svg">
<g clip-path="url(#clip0_20_63)">
<path d="M15.9999 38V42M15.9999 26V30M31.9999 38V42M31.9999 26V30M23.9999 42V46M23.9999 30V34M39.9999 33.16C42.1024 32.2392 43.8242 30.6231 44.8761 28.5831C45.9281 26.543 46.2462 24.2032 45.7771 21.9564C45.3081 19.7095 44.0803 17.6924 42.3 16.2437C40.5197 14.7949 38.2952 14.0027 35.9999 14H33.4799C32.846 11.545 31.6377 9.2759 29.9546 7.37961C28.2715 5.48331 26.1618 4.01416 23.7995 3.09325C21.4371 2.17234 18.8898 1.82604 16.3673 2.08289C13.8449 2.33975 11.4196 3.1924 9.29133 4.57057C7.1631 5.94874 5.39287 7.81297 4.12655 10.0096C2.86024 12.2062 2.13409 14.6724 2.00797 17.2047C1.88185 19.7371 2.35936 22.2631 3.40115 24.5747C4.44294 26.8863 6.01918 28.9172 7.99995 30.5" stroke="#1E1E1E" stroke-width="4" stroke-linecap="round" stroke-linejoin="round"/>
</g>
<defs>
<clipPath id="clip0_20_63">
<rect width="48" height="48" fill="white"/>
</clipPath>
</defs>
</svg>
