<svg width="48" height="48" viewBox="0 0 48 48" fill="none" xmlns="http://www.w3.org/2000/svg">
<g clip-path="url(#clip0_21_80)">
<path d="M4.43616 39.8213C4.89845 40.1852 7.27878 41.9951 9.0296 41.9951C10.1312 41.9951 10.9476 41.3557 11.6755 40.7951C12.1771 40.4016 12.6493 40.0377 13.0132 40.0377C13.4263 40.0377 13.9181 40.4115 14.4394 40.8148C15.1575 41.3656 15.9837 41.9951 17.0657 41.9951C18.1575 41.9951 18.9542 41.3656 19.6624 40.8049C20.1542 40.4115 20.6263 40.0377 21.0394 40.0377C21.4427 40.0377 21.9148 40.4115 22.4165 40.8049C23.1247 41.3656 23.9214 41.9951 25.0132 41.9951C26.0952 41.9951 26.9214 41.3656 27.6394 40.8148C28.1607 40.4115 28.6525 40.0377 29.0657 40.0377C29.4394 40.0377 29.9017 40.4115 30.4034 40.7951C31.1312 41.3557 31.9476 41.9951 33.0493 41.9951C34.8001 41.9951 37.1804 40.1852 37.6132 39.8213C38.046 39.4869 38.1148 38.8672 37.7804 38.4443C37.446 38.0115 36.8263 37.9426 36.4034 38.2771C35.4788 39.0049 33.8263 40.0279 33.0296 40.0279C32.6066 40.0279 32.1148 39.6443 31.5935 39.241C30.8952 38.6902 30.0984 38.0705 29.0558 38.0705C27.9739 38.0705 27.1476 38.7 26.4296 39.2508C25.9083 39.6541 25.4165 40.0279 25.0034 40.0279C24.6001 40.0279 24.128 39.6541 23.6263 39.2607C22.9181 38.7 22.1214 38.0705 21.0296 38.0705C19.9378 38.0705 19.1411 38.7 18.4329 39.2607C17.9411 39.6541 17.4689 40.0279 17.0558 40.0279C16.6427 40.0279 16.1509 39.6541 15.6296 39.2508C14.9116 38.7 14.0853 38.0705 13.0034 38.0705C11.9607 38.0705 11.164 38.6902 10.4657 39.241C9.94435 39.6443 9.45255 40.0279 9.0296 40.0279C8.23288 40.0279 6.58042 39.0049 5.65583 38.2771C5.23288 37.9426 4.61321 38.0213 4.27878 38.4443C3.93452 38.8672 4.0132 39.4869 4.43616 39.8213Z" fill="black"/>
<path d="M36.4229 43.264C35.5377 43.9918 33.8557 45.0738 33.0688 45.0738C32.6557 45.0738 32.1639 44.6803 31.6426 44.2574C30.9344 43.6869 30.1377 43.0377 29.0852 43.0377C27.9934 43.0377 27.177 43.6869 26.4492 44.2672C25.9279 44.6803 25.4361 45.0738 25.0328 45.0738C24.6295 45.0738 24.1672 44.6803 23.6656 44.2771C22.9574 43.6967 22.1508 43.0377 21.0492 43.0377C19.9475 43.0377 19.141 43.6967 18.4328 44.2771C17.9311 44.6902 17.4688 45.0738 17.0656 45.0738C16.6524 45.0738 16.1705 44.6803 15.6492 44.2672C14.9311 43.6869 14.1049 43.0377 13.0131 43.0377C11.9606 43.0377 11.1639 43.6869 10.4557 44.2574C9.93441 44.6803 9.44261 45.0738 9.0295 45.0738C8.24261 45.0738 6.59015 44.0115 5.6754 43.264C5.25245 42.9197 4.63277 42.9787 4.28851 43.4017C3.94425 43.8246 4.00327 44.4443 4.42622 44.7885C4.88851 45.1623 7.26884 47.041 9.0295 47.041C10.1311 47.041 10.9574 46.3721 11.6852 45.782C12.1574 45.3984 12.6492 45.0049 13.0033 45.0049C13.4164 45.0049 13.8983 45.3984 14.4197 45.8115C15.1377 46.3918 15.9639 47.041 17.0557 47.041C18.1574 47.041 18.9639 46.382 19.6721 45.8017C20.1738 45.3885 20.6361 45.0049 21.0393 45.0049C21.4426 45.0049 21.9049 45.3984 22.4065 45.8017C23.1147 46.382 23.9213 47.041 25.0229 47.041C26.1147 47.041 26.9311 46.3918 27.659 45.8115C28.1803 45.3984 28.6721 45.0049 29.0754 45.0049C29.4295 45.0049 29.9213 45.3984 30.3934 45.782C31.1115 46.3721 31.9377 47.041 33.0492 47.041C34.8098 47.041 37.1902 45.1525 37.6721 44.7885C38.0951 44.4443 38.1541 43.8246 37.8098 43.4017C37.4656 42.9787 36.8459 42.9197 36.4229 43.264Z" fill="black"/>
<path d="M39.8951 11.7787C38.941 10.1656 37.4557 8.93612 35.7049 8.31645C35.6951 8.31645 35.6852 8.30662 35.6754 8.30662C33.8951 7.72629 31.9672 7.80498 30.2459 8.54268C28.682 9.21154 27.3836 10.3722 26.5279 11.8476C25.1311 11.2771 23.6066 10.9624 22.0033 10.9624C19.682 10.9624 17.4197 11.6312 15.482 12.9001C13.7902 14.0017 12.4131 15.5066 11.4492 17.2869C10.5443 17.041 9.65902 16.982 9.01967 16.982C6.60984 16.982 4.34754 17.9066 2.6459 19.5886C0.934426 21.2804 0 23.5328 0 25.9427C0 30.9296 4.04262 34.982 9.01967 34.982H22.0131C28.3279 34.982 33.5115 30.0837 34.0033 23.8771C35.5869 23.7197 37.0918 23.0706 38.3115 21.9984C39.718 20.7689 40.6426 19.0673 40.9377 17.1984C41.2131 15.3296 40.8492 13.4017 39.8951 11.7787ZM22.0131 33.0246H9.01967C5.13443 33.0246 1.96721 29.8476 1.96721 25.9525C1.96721 22.0968 5.13443 18.9591 9.01967 18.9591C9.96393 18.9591 10.8689 19.1165 11.5672 19.4115C12.059 19.6181 12.6197 19.3919 12.8459 18.9099C14.4885 15.2804 18.0787 12.9394 22.0131 12.9394C27.5607 12.9394 32.0656 17.4246 32.0656 22.9427C32.0656 28.5001 27.5508 33.0246 22.0131 33.0246ZM38.9902 16.923C38.5869 19.5492 36.4918 21.5853 33.9934 21.9099C33.659 18.0345 31.4656 14.6804 28.2984 12.7328C29.6951 10.4017 32.459 9.31973 35.0656 10.1656C37.7803 11.1492 39.4328 13.9919 38.9902 16.923Z" fill="black"/>
<path d="M33.0493 5.8574C33.5903 5.8574 34.0329 5.41478 34.0329 4.8738V1.94265C34.0329 1.40167 33.5903 0.959045 33.0493 0.959045C32.5083 0.959045 32.0657 1.40167 32.0657 1.94265V4.8738C32.0657 5.41478 32.5083 5.8574 33.0493 5.8574Z" fill="black"/>
<path d="M41.0852 8.86723C41.3409 8.86723 41.5868 8.76886 41.7737 8.58198L43.7213 6.62461C44.1049 6.241 44.1049 5.62132 43.7213 5.23772C43.3376 4.85411 42.718 4.85411 42.3344 5.23772L40.3868 7.1951C40.0032 7.5787 40.0032 8.19837 40.3868 8.58198C40.5835 8.76886 40.8294 8.86723 41.0852 8.86723Z" fill="black"/>
<path d="M41.7737 23.3066C41.3901 22.923 40.7704 22.923 40.3868 23.3066C40.0032 23.6902 40.0032 24.3098 40.3868 24.6934L42.3344 26.6508C42.5311 26.8377 42.777 26.9361 43.0327 26.9361C43.2885 26.9361 43.5344 26.8377 43.7213 26.6508C44.1049 26.2672 44.1049 25.6476 43.7213 25.2639L41.7737 23.3066Z" fill="black"/>
<path d="M47.0163 13.982H44.0852C43.5442 13.982 43.1016 14.4246 43.1016 14.9656C43.1016 15.5066 43.5442 15.9492 44.0852 15.9492H47.0163C47.5573 15.9492 47.9999 15.5066 47.9999 14.9656C47.9999 14.4246 47.5573 13.982 47.0163 13.982Z" fill="black"/>
<path d="M24.3147 8.58198C24.5114 8.76886 24.7573 8.86723 25.013 8.86723C25.2688 8.86723 25.5147 8.76886 25.7015 8.58198C26.0852 8.19837 26.0852 7.5787 25.7015 7.1951L23.7442 5.23772C23.3606 4.85411 22.7409 4.85411 22.3573 5.23772C21.9737 5.62132 21.9737 6.241 22.3573 6.62461L24.3147 8.58198Z" fill="black"/>
</g>
<defs>
<clipPath id="clip0_21_80">
<rect width="48" height="48" fill="white"/>
</clipPath>
</defs>
</svg>
