<svg width="48" height="48" viewBox="0 0 48 48" fill="none" xmlns="http://www.w3.org/2000/svg">
<g clip-path="url(#clip0_20_48)">
<path d="M32.0001 26V42M16.0001 26V42M24.0001 30V46M40.0001 33.16C42.1026 32.2392 43.8243 30.6231 44.8762 28.5831C45.9282 26.543 46.2463 24.2032 45.7773 21.9563C45.3082 19.7095 44.0805 17.6924 42.3002 16.2436C40.5199 14.7949 38.2954 14.0027 36.0001 14H33.4801C32.8461 11.545 31.6378 9.27587 29.9547 7.37958C28.2716 5.48328 26.1619 4.01413 23.7996 3.09322C21.4373 2.17231 18.8899 1.82601 16.3674 2.08286C13.845 2.33972 11.4197 3.19237 9.29146 4.57054C7.16322 5.94871 5.39299 7.81294 4.12668 10.0096C2.86036 12.2062 2.13421 14.6723 2.00809 17.2047C1.88197 19.737 2.35948 22.2631 3.40127 24.5747C4.44307 26.8863 6.0193 28.9172 8.00007 30.5" stroke="#1E1E1E" stroke-width="4" stroke-linecap="round" stroke-linejoin="round"/>
</g>
<defs>
<clipPath id="clip0_20_48">
<rect width="48" height="48" fill="white"/>
</clipPath>
</defs>
</svg>
